PathFileType	4	(X/Y/Z)	/Users/itak/Documents/Research/Walk-IL/dataset/trc/00022_00004.trc
DataRate	CameraRate	NumFrames	NumMarkers	Units	OrigDataRate	OrigDataStartFrame	OrigNumFrames
100.000000	100.000000	4	53	mm	100.000000	105	846
Frame#	Time	RPSI			LPSI			L3			STRN			T10			C7			CLAV			RBAK			LBAK			LSHO			LUPA			LAEL			LAOL			LWTS			LWPS			LFRA			LIFD			LHPS			LHTS			RSHO			RUPA			RAEL			RAOL			RWTS			RWPS			RFRA			RIFD			RHTS			RHPS			RBHD			LFHD			RFHD			LBHD			LHIP			RHIP			RASI			LASI			LKNE			LTHI			LANK			LTIP			LTOE			LMT1			LMT5			LHEE			RKNE			RTHI			RANK			RTIP			RTOE			RMT1			RMT5			RHEE			
		X1	Y1	Z1	X2	Y2	Z2	X3	Y3	Z3	X4	Y4	Z4	X5	Y5	Z5	X6	Y6	Z6	X7	Y7	Z7	X8	Y8	Z8	X9	Y9	Z9	X10	Y10	Z10	X11	Y11	Z11	X12	Y12	Z12	X13	Y13	Z13	X14	Y14	Z14	X15	Y15	Z15	X16	Y16	Z16	X17	Y17	Z17	X18	Y18	Z18	X19	Y19	Z19	X20	Y20	Z20	X21	Y21	Z21	X22	Y22	Z22	X23	Y23	Z23	X24	Y24	Z24	X25	Y25	Z25	X26	Y26	Z26	X27	Y27	Z27	X28	Y28	Z28	X29	Y29	Z29	X30	Y30	Z30	X31	Y31	Z31	X32	Y32	Z32	X33	Y33	Z33	X34	Y34	Z34	X35	Y35	Z35	X36	Y36	Z36	X37	Y37	Z37	X38	Y38	Z38	X39	Y39	Z39	X40	Y40	Z40	X41	Y41	Z41	X42	Y42	Z42	X43	Y43	Z43	X44	Y44	Z44	X45	Y45	Z45	X46	Y46	Z46	X47	Y47	Z47	X48	Y48	Z48	X49	Y49	Z49	X50	Y50	Z50	X51	Y51	Z51	X52	Y52	Z52	X53	Y53	Z53	

106	1.05	-14.97490406036377	1079.224853515625	1183.95556640625	-23.90449142456055	1073.719482421875	1020.133666992188	-23.74641990661621	1135.3662109375	1094.485107421875	210.3430328369141	1314.210205078125	1096.856201171875	-43.06563949584961	1281.635986328125	1090.491455078125	23.3271312713623	1545.390747070312	1079.166259765625	175.1033020019531	1442.294311523438	1090.327026367188	-39.37922668457031	1412.961181640625	1160.22021484375	5.434639930725098	1504.014282226562	982.6795043945312	108.7553253173828	1503.0869140625	912.31103515625	73.70174407958984	1380.215576171875	835.0902709960938	64.02459716796875	1162.77880859375	811.8841552734375	5.630127429962158	1154.129516601562	899.5284423828125	143.5747833251953	908.0280151367188	873.3861694335938	66.67414093017578	894.108154296875	830.48828125	73.43921661376953	1045.94384765625	807.6951293945312	161.0936737060547	720.4306030273438	898.6453247070312	95.66529083251953	803.0923461914062	835.0432739257812	160.9878997802734	810.7800903320312	863.8519897460938	93.5899658203125	1528.044555664062	1253.546997070312	74.33557891845703	1461.673095703125	1328.052490234375	23.79898452758789	1193.603515625	1352.605102539062	20.8287525177002	1166.708862304688	1256.246337890625	137.93603515625	923.9884033203125	1326.477905273438	70.51982116699219	913.44970703125	1388.067749023438	31.87007141113281	1116.891479492188	1368.178344726562	151.0576934814453	735.5511474609375	1320.804321289062	165.4494018554688	813.5402221679688	1342.615600585938	108.5274505615234	812.781982421875	1390.7841796875	152.1939544677734	1724.470336914062	1159.7568359375	250.2210235595703	1702.5244140625	973.7989501953125	295.3491821289062	1706.015380859375	1060.734130859375	79.40506744384766	1723.462036132812	1034.64453125	66.72384643554688	967.603271484375	903.2138671875	94.33480834960938	955.81787109375	1278.223388671875	197.52197265625	987.5194091796875	1201.73779296875	183.5622406005859	1008.9873046875	967.7235717773438	163.1817474365234	524.3927001953125	938.3836059570312	120.8963088989258	659.5147094726562	906.42822265625	2.940446853637695	50.5753173828125	923.5034790039062	54.58823013305664	293.5442504882812	914.761962890625	221.7268829345703	39.81136322021484	982.9033203125	163.0201263427734	47.4068603515625	1001.586791992188	126.4139785766602	47.73553466796875	902.7039794921875	-65.45754241943359	58.51082611083984	977.028076171875	93.99838256835938	521.6940307617188	1210.838500976562	116.6478805541992	788.1380615234375	1268.9365234375	-34.09547424316406	42.36554718017578	1158.47265625	66.41982269287109	398.107666015625	1205.239990234375	200.2078094482422	48.83001327514648	1134.723266601562	139.6345367431641	54.00534439086914	1100.276733398438	112.1904830932617	41.70521926879883	1192.72265625	-85.72409820556641	44.25943374633789	1109.209350585938	
107	1.06	-14.10094165802002	1079.27294921875	1184.135009765625	-23.23089599609375	1073.576904296875	1020.330627441406	-22.88310813903809	1135.495849609375	1094.670654296875	211.7169342041016	1313.802490234375	1096.852416992188	-41.78636932373047	1281.822021484375	1090.691650390625	25.24691963195801	1545.418701171875	1079.223266601562	176.7706756591797	1441.970092773438	1090.29248046875	-37.75477600097656	1413.19970703125	1160.365844726562	7.148642063140869	1504.03466796875	982.7725219726562	110.33349609375	1502.803344726562	912.3070678710938	74.91397857666016	1379.9990234375	835.1656494140625	64.703125	1162.655517578125	811.8468017578125	6.53659725189209	1154.015991210938	899.6412963867188	144.3645629882812	907.8766479492188	872.94140625	67.28172302246094	893.9796752929688	830.3231201171875	74.03852081298828	1045.8203125	807.5562133789062	161.9640197753906	720.2794189453125	897.9583129882812	96.30867004394531	802.9619750976562	834.697021484375	161.6905059814453	810.621826171875	863.2449951171875	95.62773132324219	1527.968505859375	1253.556274414062	76.20874786376953	1461.70263671875	1328.096557617188	24.51910209655762	1193.9130859375	1353.02197265625	21.53824806213379	1166.875	1256.6787109375	137.3952026367188	923.6331176757812	1327.43310546875	69.77139282226562	913.6023559570312	1389.032592773438	32.24954605102539	1117.219970703125	1368.668334960938	149.3220977783203	735.0783081054688	1322.171142578125	164.1385040283203	813.040771484375	1343.872192382812	107.1212692260742	812.7926635742188	1391.912841796875	154.4510192871094	1724.157836914062	1159.585083007812	252.45263671875	1702.044311523438	973.6286010742188	297.6116027832031	1705.505004882812	1060.560791015625	81.67576599121094	1723.205444335938	1034.490844726562	67.58943176269531	967.408447265625	903.239013671875	95.10826110839844	955.7544555664062	1278.338745117188	198.2756195068359	987.3021240234375	1201.9052734375	184.2470092773438	1008.827270507812	967.8990478515625	169.3394165039062	524.7874145507812	938.6237182617188	125.6611404418945	659.7055053710938	906.8854370117188	3.355643272399902	52.00019836425781	924.611083984375	58.29383850097656	294.2187805175781	915.3391723632812	222.2283935546875	40.40091705322266	983.06103515625	163.6748199462891	48.09231185913086	1001.963317871094	126.6456909179688	48.72146606445312	903.2409057617188	-64.75522613525391	60.33802795410156	978.3821411132812	94.19952392578125	521.5918579101562	1211.209228515625	117.089225769043	788.0636596679688	1269.218505859375	-34.14020538330078	42.30654144287109	1158.52490234375	66.43862915039062	398.01220703125	1205.5693359375	200.1718292236328	48.81491088867188	1134.781005859375	139.5920257568359	54.0333366394043	1100.325073242188	112.1681823730469	41.69535446166992	1192.791259765625	-85.79323577880859	44.22530364990234	1109.240234375	
108	1.07	-13.1087064743042	1079.299194335938	1184.288452148438	-22.42276573181152	1073.423095703125	1020.503112792969	-21.91617012023926	1135.599853515625	1094.819580078125	213.1359558105469	1313.432739257812	1096.769653320312	-40.43527984619141	1281.998901367188	1090.871337890625	27.17547798156738	1545.4599609375	1079.282592773438	178.4465026855469	1441.671020507812	1090.199096679688	-36.06484603881836	1413.429077148438	1160.527099609375	8.834885597229004	1504.056030273438	982.87109375	111.8563690185547	1502.560180664062	912.2673950195312	76.09037017822266	1379.808837890625	835.2062377929688	65.43015289306641	1162.56005859375	811.7679443359375	7.519482612609863	1153.9033203125	899.7335205078125	145.2215881347656	907.7421264648438	872.4111328125	67.97425079345703	893.8790283203125	830.0568237304688	74.70161437988281	1045.725219726562	807.360107421875	162.8881683349609	720.1377563476562	897.190185546875	97.03383636474609	802.85107421875	834.2514038085938	162.4727020263672	810.4829711914062	862.5574340820312	97.74162292480469	1527.89111328125	1253.539916992188	78.18856048583984	1461.722045898438	1328.117797851562	25.37183952331543	1194.225708007812	1353.41552734375	22.3685417175293	1167.039916992188	1257.09228515625	136.8642272949219	923.2642211914062	1328.361206054688	69.06866455078125	913.7595825195312	1389.982299804688	32.75295257568359	1117.552978515625	1369.141235351562	147.5757446289062	734.5765380859375	1323.529052734375	162.8430023193359	812.53662109375	1345.116455078125	105.7503662109375	812.8072509765625	1393.027587890625	156.7706298828125	1723.854125976562	1159.383911132812	254.6970825195312	1701.550537109375	973.4111328125	299.9132080078125	1704.963500976562	1060.324340820312	83.98075103759766	1722.988403320312	1034.322387695312	68.638916015625	967.2479248046875	903.2286987304688	96.03215026855469	955.6902465820312	1278.414672851562	199.1723175048828	987.1119384765625	1202.041137695312	185.0816040039062	1008.714599609375	968.0374755859375	175.54736328125	525.2513427734375	938.8386840820312	130.5549163818359	659.9785766601562	907.3375244140625	4.021982669830322	53.52508544921875	925.9609985351562	62.10941314697266	294.9806518554688	916.0293579101562	223.0338439941406	41.13309478759766	983.3668212890625	164.6542816162109	48.92265701293945	1002.518615722656	127.1301116943359	49.78632736206055	903.9776000976562	-63.75600433349609	62.2796630859375	980.015380859375	94.44796752929688	521.4779052734375	1211.525756835938	117.7285995483398	787.98876953125	1269.424560546875	-34.18170547485352	42.25121307373047	1158.572143554688	66.48110961914062	397.9215087890625	1205.86083984375	200.1411590576172	48.79518890380859	1134.834838867188	139.5577545166016	54.05137634277344	1100.36083984375	112.1485214233398	41.69439697265625	1192.845092773438	-85.85435485839844	44.20568084716797	1109.269775390625	
109	1.08	-12.00006008148193	1079.3076171875	1184.408325195312	-21.46647834777832	1073.27490234375	1020.644714355469	-20.82515525817871	1135.67822265625	1094.93798828125	214.611083984375	1313.110717773438	1096.612915039062	-39.00214385986328	1282.176513671875	1091.028076171875	29.10904693603516	1545.5205078125	1079.34375	180.1361846923828	1441.406127929688	1090.050659179688	-34.30606079101562	1413.649047851562	1160.705200195312	10.49649333953857	1504.085327148438	982.9735717773438	113.3347549438477	1502.36669921875	912.1943359375	77.23677825927734	1379.658813476562	835.21044921875	66.21176147460938	1162.501708984375	811.6459350585938	8.577045440673828	1153.805053710938	899.7984619140625	146.1307067871094	907.6290893554688	871.8109741210938	68.73521423339844	893.812255859375	829.6983032226562	75.42618560791016	1045.665649414062	807.1094970703125	163.8440399169922	720.0135498046875	896.3668212890625	97.82109069824219	802.7658081054688	833.7199096679688	163.3200988769531	810.3695068359375	861.812255859375	99.92710113525391	1527.817504882812	1253.497436523438	80.27041625976562	1461.740600585938	1328.118286132812	26.37502479553223	1194.549682617188	1353.779052734375	23.33135223388672	1167.211181640625	1257.4853515625	136.3376617431641	922.8933715820312	1329.250732421875	68.42189788818359	913.92822265625	1390.902221679688	33.40208435058594	1117.899047851562	1369.603759765625	145.8177642822266	734.0692749023438	1324.858642578125	161.5709686279297	812.0443725585938	1346.32177734375	104.4212646484375	812.8251953125	1394.120239257812	159.1539154052734	1723.567993164062	1159.152709960938	256.9543762207031	1701.04638671875	973.1441040039062	302.25	1704.39501953125	1060.022583007812	86.31945037841797	1722.817993164062	1034.13671875	69.89032745361328	967.1370849609375	903.1856689453125	97.09225463867188	955.6210327148438	1278.457641601562	200.21435546875	986.949462890625	1202.151245117188	186.081787109375	1008.653747558594	968.149169921875	181.7429504394531	525.78955078125	939.0097045898438	135.51708984375	660.3430786132812	907.757568359375	5.041274070739746	55.10912322998047	927.5630493164062	66.05162048339844	295.8060607910156	916.8345947265625	224.2190246582031	41.99758529663086	983.9022216796875	166.0166473388672	49.88415145874023	1003.314392089844	127.9721832275391	50.90647888183594	904.9622802734375	-62.38310241699219	64.277099609375	981.9176635742188	94.74706268310547	521.3507690429688	1211.794067382812	118.5297546386719	787.9114990234375	1269.558837890625	-34.21719360351562	42.20059967041016	1158.61572265625	66.55886077880859	397.8388061523438	1206.112670898438	200.1151885986328	48.77032470703125	1134.880249023438	139.5325317382812	54.06062698364258	1100.3857421875	112.1342239379883	41.70189666748047	1192.879760742188	-85.90615844726562	44.20075225830078	1109.299194335938	
